<?xml version="1.0" encoding="iso-8859-1"?>
<!-- Generator: Adobe Illustrator 19.0.0, SVG Export Plug-In . SVG Version: 6.00 Build 0) -->
<svg version="1.1" id="Capa_1" xmlns="http://www.w3.org/2000/svg" xmlns:xlink="http://www.w3.org/1999/xlink" x="0px" y="0px" viewBox="0 0 508 508" style="enable-background:new 0 0 508 508;" xml:space="preserve">
	<g>
		<path d="M458.75,135.9L322.85,0H98.25v49.2h-49.1V508h360.5v-49.2h49.2V135.9H458.75z M327.65,28l103.1,103.1h-103.1V28z
			 M393.25,491.6H65.45V65.5h32.8v393.3h295V491.6z M442.35,442.5h-327.7V16.4h196.6v131.1h131.1V442.5z"/>
	</g>
	<g>
		<path d="M147.45,32.8v163.9h131.1V32.8H147.45z M262.15,180.3h-98.3V49.2h98.3V180.3z"/>
	</g>
	<g>
		<rect x="147.45" y="245.8" width="262.2" height="16.4"/>
	</g>
	<g>
		<rect x="147.45" y="311.4" width="262.2" height="16.4"/>
	</g>
	<g>
		<rect x="147.45" y="376.9" width="262.2" height="16.4"/>
	</g>
</svg>